<?xml version="1.0" standalone="no"?>
<!DOCTYPE svg PUBLIC "-//W3C//DTD SVG 20010904//EN"
 "http://www.w3.org/TR/2001/REC-SVG-20010904/DTD/svg10.dtd">
<svg version="1.0" xmlns="http://www.w3.org/2000/svg"
 width="300.000000pt" height="300.000000pt" viewBox="0 0 300.000000 300.000000"
 preserveAspectRatio="xMidYMid meet">

<g transform="translate(0.000000,300.000000) scale(0.100000,-0.100000)"
fill="#000000" stroke="none">
<path d="M1872 2328 c-30 -30 -8 -68 39 -68 18 0 19 -10 19 -220 0 -135 -4
-220 -10 -220 -5 0 -25 14 -43 30 -19 17 -41 30 -48 30 -8 0 -25 9 -39 20 -32
25 -48 25 -76 -1 -12 -11 -37 -28 -55 -37 l-34 -17 -5 -90 -5 -90 -38 3 c-47
4 -77 -19 -77 -60 0 -21 17 -46 72 -104 40 -41 84 -82 100 -90 31 -16 140 -19
168 -4 13 7 21 7 25 0 3 -5 28 -10 54 -10 82 0 85 8 89 235 l3 194 31 3 c62 6
60 68 -3 68 l-28 0 -3 196 -3 196 -28 24 c-30 26 -85 32 -105 12z m-104 -460
c7 -7 13 -50 14 -112 l1 -101 6 82 c6 84 18 110 45 100 13 -5 16 -23 16 -92 0
-98 18 -116 22 -22 3 54 5 62 23 62 19 0 20 -7 20 -127 0 -113 -2 -130 -21
-155 -50 -67 -124 -90 -197 -59 -45 18 -159 144 -155 170 4 27 41 24 81 -4
l27 -21 0 105 c0 118 4 136 31 136 22 0 28 -20 32 -110 3 -57 3 -55 5 22 3
117 19 157 50 126z"/>
<path d="M1022 2310 c-12 -11 -23 -22 -24 -23 -1 -1 -4 -90 -7 -197 l-6 -195
-29 -5 c-61 -11 -56 -70 5 -70 l29 0 0 -189 c0 -175 1 -190 21 -215 17 -22 29
-26 68 -26 26 0 51 3 55 7 4 4 41 6 81 4 92 -3 117 10 210 112 70 77 81 110
46 141 -13 12 -32 17 -58 14 l-38 -3 -5 88 c-4 73 -9 91 -24 103 -11 8 -25 14
-31 14 -5 0 -22 11 -37 25 -32 30 -45 31 -78 5 -14 -11 -33 -20 -43 -20 -9 0
-27 -11 -39 -25 -12 -14 -30 -25 -40 -25 -17 0 -18 14 -18 209 l0 210 31 3
c18 2 37 11 43 21 29 47 -67 79 -112 37z m238 -540 c0 -122 18 -144 22 -28 3
76 5 83 24 86 28 4 34 -19 34 -143 0 -55 4 -95 8 -89 12 19 70 44 86 38 9 -3
16 -14 16 -23 0 -24 -120 -152 -157 -167 -73 -31 -157 -7 -199 56 -23 35 -24
44 -22 161 3 116 4 124 23 124 17 0 21 -8 25 -65 7 -81 19 -60 22 40 3 67 5
75 23 75 18 0 20 -8 23 -82 4 -118 22 -104 22 16 0 71 4 101 13 104 31 11 37
-5 37 -103z"/>
<path d="M610 1040 c0 -101 2 -111 18 -108 15 3 17 16 17 108 0 92 -2 105 -17
108 -16 3 -18 -7 -18 -108z"/>
<path d="M684 1137 c-3 -8 -3 -56 -2 -108 3 -80 6 -94 21 -97 15 -3 17 5 17
65 l1 68 37 -68 c54 -98 67 -89 67 43 0 91 -2 105 -17 108 -14 3 -17 -7 -20
-60 l-3 -63 -33 63 c-31 59 -57 78 -68 49z"/>
<path d="M864 1137 c-3 -8 -3 -56 -2 -108 3 -79 6 -94 20 -97 14 -3 18 7 20
64 l3 67 35 -64 c52 -95 64 -87 68 44 2 100 1 108 -15 105 -14 -2 -19 -16 -23
-63 l-5 -60 -33 63 c-31 59 -57 78 -68 49z"/>
<path d="M1060 1130 c-16 -16 -20 -33 -20 -90 0 -57 4 -74 20 -90 24 -24 67
-26 98 -4 20 13 22 24 22 94 0 70 -2 81 -22 94 -31 22 -74 20 -98 -4z m75 -90
c0 -73 -1 -75 -25 -75 -24 0 -25 3 -28 64 -4 78 1 93 30 89 22 -3 23 -8 23
-78z"/>
<path d="M1206 1142 c-3 -5 9 -53 27 -108 26 -81 36 -99 52 -99 16 0 25 16 47
84 35 107 37 125 17 129 -12 2 -20 -14 -34 -65 -10 -37 -21 -74 -25 -82 -7
-13 -23 30 -45 122 -7 26 -28 36 -39 19z"/>
<path d="M1434 1137 c-21 -56 -61 -197 -56 -201 13 -14 30 -4 36 19 5 21 12
25 41 25 29 0 37 -5 45 -25 10 -25 24 -32 34 -16 3 4 -9 53 -27 107 -23 71
-37 100 -50 102 -9 2 -20 -3 -23 -11z m46 -114 c0 -7 -12 -13 -26 -13 -27 0
-26 -3 -7 65 6 18 8 17 19 -10 7 -16 13 -36 14 -42z"/>
<path d="M1550 1135 c0 -9 9 -15 25 -15 24 0 24 -2 27 -92 3 -79 6 -93 21 -96
15 -3 17 6 17 92 0 94 0 95 25 98 54 7 27 23 -42 26 -60 2 -73 0 -73 -13z"/>
<path d="M1720 1040 l0 -110 65 0 c51 0 65 3 65 15 0 11 -12 15 -45 15 -43 0
-45 1 -45 30 0 25 4 30 25 30 16 0 25 6 25 15 0 9 -9 15 -25 15 -22 0 -25 4
-25 35 0 35 0 35 45 35 33 0 45 4 45 15 0 12 -14 15 -65 15 l-65 0 0 -110z"/>
<path d="M1907 1143 c-10 -3 -22 -16 -28 -30 -12 -33 9 -68 57 -90 25 -13 34
-23 32 -38 -2 -15 -10 -20 -33 -19 -16 0 -37 2 -45 5 -9 2 -15 -2 -15 -11 0
-9 15 -19 37 -24 106 -26 133 88 32 130 -24 10 -34 20 -32 32 3 13 13 17 46
15 29 -1 42 2 42 12 0 22 -44 31 -93 18z"/>
<path d="M2050 1130 c-16 -16 -20 -33 -20 -90 0 -57 4 -74 20 -90 24 -24 67
-26 98 -4 20 13 22 24 22 94 0 70 -2 81 -22 94 -31 22 -74 20 -98 -4z m75 -90
c0 -73 -1 -75 -25 -75 -24 0 -25 3 -28 64 -4 78 1 93 30 89 22 -3 23 -8 23
-78z"/>
<path d="M2210 1039 c0 -100 2 -110 18 -107 12 2 18 15 20 46 3 37 6 42 28 42
15 0 24 6 24 15 0 9 -9 15 -25 15 -22 0 -25 4 -25 35 0 35 0 35 45 35 33 0 45
4 45 15 0 12 -14 15 -65 15 l-65 0 0 -111z"/>
<path d="M2350 1135 c0 -9 9 -15 25 -15 24 0 24 -2 27 -92 2 -75 6 -93 18 -93
12 0 16 18 18 93 3 90 3 92 27 92 16 0 25 6 25 15 0 12 -14 15 -70 15 -56 0
-70 -3 -70 -15z"/>
<path d="M658 793 c7 -3 16 -2 19 1 4 3 -2 6 -13 5 -11 0 -14 -3 -6 -6z"/>
<path d="M698 793 c7 -3 16 -2 19 1 4 3 -2 6 -13 5 -11 0 -14 -3 -6 -6z"/>
<path d="M900 770 c0 -22 5 -30 18 -29 10 0 12 3 5 6 -7 2 -13 13 -13 23 0 10
6 21 13 23 7 3 5 6 -5 6 -13 1 -18 -7 -18 -29z"/>
<path d="M1160 768 c0 -24 3 -29 9 -18 6 8 7 18 4 23 -3 5 1 13 8 18 11 7 10
9 -3 9 -14 0 -18 -8 -18 -32z"/>
<path d="M1268 793 c7 -3 16 -2 19 1 4 3 -2 6 -13 5 -11 0 -14 -3 -6 -6z"/>
<path d="M1371 768 c0 -18 3 -27 6 -20 2 6 9 10 14 6 5 -3 9 -1 9 5 0 5 -6 12
-12 14 -10 4 -9 8 2 16 13 9 13 11 -2 11 -14 0 -18 -8 -17 -32z"/>
<path d="M1675 790 c-3 -6 1 -7 9 -4 18 7 21 14 7 14 -6 0 -13 -4 -16 -10z"/>
<path d="M1788 793 c6 -2 18 -2 25 0 6 3 1 5 -13 5 -14 0 -19 -2 -12 -5z"/>
<path d="M1875 790 c-3 -6 1 -7 9 -4 18 7 21 14 7 14 -6 0 -13 -4 -16 -10z"/>
<path d="M2308 793 c7 -3 16 -2 19 1 4 3 -2 6 -13 5 -11 0 -14 -3 -6 -6z"/>
<path d="M698 763 c7 -3 16 -2 19 1 4 3 -2 6 -13 5 -11 0 -14 -3 -6 -6z"/>
<path d="M2130 758 c0 -4 7 -8 15 -8 8 0 15 4 15 8 0 5 -7 9 -15 9 -8 0 -15
-4 -15 -9z"/>
<path d="M798 753 c7 -3 16 -2 19 1 4 3 -2 6 -13 5 -11 0 -14 -3 -6 -6z"/>
<path d="M967 749 c7 -7 15 -10 18 -7 3 3 -2 9 -12 12 -14 6 -15 5 -6 -5z"/>
<path d="M1677 749 c7 -7 15 -10 18 -7 3 3 -2 9 -12 12 -14 6 -15 5 -6 -5z"/>
<path d="M1877 749 c7 -7 15 -10 18 -7 3 3 -2 9 -12 12 -14 6 -15 5 -6 -5z"/>
<path d="M2018 753 c7 -3 16 -2 19 1 4 3 -2 6 -13 5 -11 0 -14 -3 -6 -6z"/>
<path d="M658 743 c7 -3 16 -2 19 1 4 3 -2 6 -13 5 -11 0 -14 -3 -6 -6z"/>
<path d="M1218 743 c7 -3 16 -2 19 1 4 3 -2 6 -13 5 -11 0 -14 -3 -6 -6z"/>
<path d="M1788 743 c6 -2 18 -2 25 0 6 3 1 5 -13 5 -14 0 -19 -2 -12 -5z"/>
<path d="M2308 743 c7 -3 16 -2 19 1 4 3 -2 6 -13 5 -11 0 -14 -3 -6 -6z"/>
</g>
</svg>
