<?xml version="1.0" standalone="no"?>
<!DOCTYPE svg PUBLIC "-//W3C//DTD SVG 20010904//EN"
 "http://www.w3.org/TR/2001/REC-SVG-20010904/DTD/svg10.dtd">
<svg version="1.0" xmlns="http://www.w3.org/2000/svg"
 width="1024.000000pt" height="1024.000000pt" viewBox="0 0 1024.000000 1024.000000"
 preserveAspectRatio="xMidYMid meet">

<g transform="translate(0.000000,1024.000000) scale(0.100000,-0.100000)"
fill="#000000" stroke="none">
<path d="M3674 7836 c-6 -17 182 -391 691 -1376 309 -597 527 -1031 521 -1037
-9 -10 -146 15 -246 43 -364 104 -637 379 -716 721 -41 177 -16 383 68 565
l40 87 -58 110 c-32 61 -61 111 -65 111 -23 0 -151 -240 -187 -350 -62 -190
-68 -435 -17 -620 30 -109 103 -269 165 -361 181 -266 510 -468 865 -533 187
-33 468 -47 497 -23 26 21 625 1123 643 1185 6 22 6 22 -119 22 l-126 0 -30
-52 c-16 -29 -125 -229 -242 -445 -117 -216 -216 -392 -220 -393 -3 0 -82 147
-174 328 -92 180 -262 512 -379 737 -297 573 -535 1040 -535 1049 0 4 334 5
743 4 l742 -4 98 -26 c433 -119 738 -440 833 -878 22 -102 22 -310 -1 -415
-48 -228 -151 -414 -315 -569 -150 -141 -336 -234 -562 -281 l-87 -18 -60
-117 c-34 -65 -61 -121 -61 -125 0 -13 160 4 270 29 423 96 747 341 932 704
96 189 138 370 138 592 0 164 -19 288 -67 425 -141 406 -456 719 -862 855
-198 67 -152 64 -1179 68 -825 2 -933 1 -938 -12z"/>
<path d="M4331 7310 l62 -120 288 0 289 0 0 -555 0 -555 80 -160 c44 -88 84
-160 88 -160 4 0 22 26 40 59 l32 59 0 657 0 658 108 -6 c194 -10 337 -72 467
-202 177 -176 247 -430 184 -671 -24 -93 -106 -266 -212 -449 -42 -71 -74
-131 -73 -133 6 -6 114 46 172 83 317 203 448 603 322 984 -107 323 -384 555
-734 616 -70 12 -189 15 -631 15 l-544 0 62 -120z"/>
<path d="M3832 4571 c-15 -16 -200 -375 -411 -799 -330 -660 -383 -773 -372
-786 11 -13 35 -16 117 -16 90 0 105 2 121 20 10 11 54 96 98 189 l80 170 421
1 421 0 51 -107 c28 -60 67 -143 87 -186 26 -54 43 -79 58 -82 12 -3 67 -5
122 -3 88 3 100 5 103 22 5 22 -762 1559 -791 1587 -31 28 -74 24 -105 -10z
m204 -676 c79 -162 144 -299 144 -305 0 -6 -105 -10 -295 -10 -189 0 -295 4
-295 10 0 11 293 600 298 600 2 0 68 -133 148 -295z"/>
<path d="M1248 4584 c-5 -4 -8 -366 -8 -805 0 -645 2 -798 13 -802 22 -8 525
-6 667 3 229 15 360 71 506 215 131 129 199 270 225 460 22 169 -8 343 -85
500 -103 206 -254 332 -481 401 -90 27 -91 27 -460 32 -203 2 -373 0 -377 -4z
m767 -248 c33 -9 85 -29 115 -43 69 -33 188 -150 222 -218 175 -345 29 -755
-300 -846 -57 -16 -104 -19 -324 -19 l-258 0 0 568 c0 313 3 572 8 576 4 5
113 6 242 3 172 -4 251 -9 295 -21z"/>
<path d="M4830 4583 c-8 -3 -18 -10 -21 -16 -4 -5 77 -178 178 -386 102 -207
218 -443 258 -526 258 -532 345 -704 366 -719 32 -22 63 -20 92 7 14 12 132
234 262 492 285 564 486 958 531 1042 37 69 42 98 18 107 -22 8 -195 6 -217
-3 -12 -4 -131 -229 -324 -611 -168 -333 -308 -608 -312 -613 -4 -4 -45 70
-91 165 -46 95 -164 340 -263 543 -98 204 -188 390 -199 415 -11 25 -31 60
-45 78 l-24 32 -97 -1 c-53 0 -104 -3 -112 -6z"/>
<path d="M6937 4584 c-4 -4 -7 -364 -7 -799 0 -667 2 -794 14 -804 9 -8 48
-11 112 -9 l99 3 0 805 0 805 -106 3 c-58 1 -108 -1 -112 -4z"/>
<path d="M7812 4578 c-9 -9 -12 -200 -12 -800 l0 -787 22 -12 c15 -8 115 -10
367 -6 303 4 356 8 426 25 186 47 326 141 431 288 236 331 189 825 -105 1096
-120 110 -257 175 -415 197 -111 16 -698 15 -714 -1z m752 -243 c144 -39 265
-137 329 -267 49 -101 67 -178 67 -295 0 -257 -126 -457 -338 -536 -52 -19
-82 -21 -319 -25 l-263 -3 0 577 0 577 233 -6 c165 -4 249 -10 291 -22z"/>
<path d="M2572 2594 c-14 -10 -22 -26 -22 -44 0 -32 7 -38 65 -60 42 -16 55
-41 35 -65 -14 -17 -53 -19 -80 -5 -13 7 -21 7 -25 0 -9 -15 45 -32 83 -26 45
7 62 23 62 57 0 31 -24 52 -72 63 -15 3 -33 16 -39 28 -17 31 13 51 64 44 37
-6 51 6 21 18 -28 11 -69 6 -92 -10z"/>
<path d="M2841 2596 c-33 -18 -50 -53 -51 -103 0 -56 31 -93 85 -99 51 -6 85
12 108 56 49 95 -50 197 -142 146z m96 -21 c28 -20 39 -76 23 -116 -35 -83
-140 -53 -140 41 0 72 64 112 117 75z"/>
<path d="M3104 2597 c-2 -7 -3 -56 -2 -108 3 -99 19 -127 28 -49 l5 45 48 3
c63 4 60 22 -4 22 l-50 0 3 38 3 37 50 0 c77 0 71 20 -8 23 -50 2 -69 -1 -73
-11z"/>
<path d="M3330 2601 c0 -6 15 -11 33 -13 l32 -3 5 -100 c6 -116 18 -108 22 15
l3 85 38 3 c20 2 35 7 32 13 -8 12 -165 12 -165 0z"/>
<path d="M3570 2598 c0 -13 10 -51 36 -145 11 -41 19 -53 34 -53 14 0 22 11
30 40 5 22 15 59 21 81 13 51 22 42 39 -39 13 -63 33 -96 53 -89 6 2 21 39 32
83 36 133 37 134 22 134 -7 0 -20 -29 -31 -72 -26 -108 -27 -111 -36 -102 -4
5 -15 43 -25 84 -10 41 -22 80 -27 85 -15 16 -33 -17 -53 -99 -11 -42 -22 -76
-26 -76 -3 0 -9 17 -12 38 -10 61 -37 142 -47 142 -6 0 -10 -6 -10 -12z"/>
<path d="M4013 2602 c-13 -8 -83 -177 -83 -199 0 -23 17 -13 30 17 11 28 16
30 61 30 44 0 50 -3 65 -31 9 -19 19 -28 25 -22 9 9 -67 213 -80 213 -3 0 -12
-4 -18 -8z m31 -75 c9 -23 16 -46 16 -50 0 -4 -18 -7 -41 -7 -29 0 -39 4 -35
13 2 6 10 29 17 50 7 20 15 37 19 37 4 0 15 -19 24 -43z"/>
<path d="M4224 2597 c-10 -28 1 -200 14 -205 8 -2 12 10 12 42 0 42 2 46 25
46 18 0 32 -11 51 -40 15 -22 33 -40 40 -40 20 0 17 11 -10 45 l-24 30 24 22
c27 25 32 74 10 93 -23 18 -135 24 -142 7z m107 -17 c21 -12 25 -50 7 -68 -7
-7 -29 -12 -50 -12 -37 0 -38 1 -38 38 0 21 3 42 7 45 10 10 52 8 74 -3z"/>
<path d="M4494 2597 c-3 -8 -3 -56 -2 -108 l3 -94 49 -3 c27 -2 61 0 75 5 21
6 15 8 -34 13 l-60 5 -3 38 -3 37 55 0 c31 0 56 5 56 10 0 6 -25 10 -56 10
l-55 0 3 38 3 37 58 3 c81 4 71 22 -13 22 -49 0 -72 -4 -76 -13z"/>
<path d="M4880 2505 l0 -105 64 0 c81 0 114 24 122 85 11 84 -33 125 -136 125
l-50 0 0 -105z m142 55 c21 -26 24 -88 5 -114 -13 -18 -92 -41 -108 -31 -5 4
-9 45 -9 92 l0 86 47 -6 c32 -3 53 -12 65 -27z"/>
<path d="M5180 2500 l0 -110 70 0 c84 0 94 18 13 22 l-58 3 0 35 0 35 53 3
c28 2 52 7 52 12 0 5 -24 10 -52 12 l-53 3 0 35 0 35 58 3 c81 4 71 22 -13 22
l-70 0 0 -110z"/>
<path d="M5410 2603 c0 -4 14 -52 32 -105 30 -91 34 -98 58 -98 25 0 29 7 58
101 18 56 30 104 28 106 -13 13 -29 -16 -53 -98 -15 -49 -30 -86 -34 -82 -5 5
-21 46 -36 92 -16 47 -34 86 -41 89 -7 2 -12 0 -12 -5z"/>
<path d="M5694 2595 c-3 -6 -3 -54 -2 -106 l3 -94 68 -3 c50 -2 67 0 67 10 0
9 -15 12 -55 10 l-55 -4 0 41 0 41 50 0 c28 0 50 5 50 10 0 6 -22 10 -50 10
l-50 0 0 35 c0 37 7 40 83 35 17 -1 27 4 27 12 0 17 -130 20 -136 3z"/>
<path d="M6207 2595 c-33 -19 -47 -51 -47 -106 0 -67 64 -112 132 -93 72 21
99 127 47 180 -32 32 -93 41 -132 19z m86 -14 c29 -11 51 -67 41 -105 -7 -30
-48 -66 -74 -66 -10 0 -29 9 -44 21 -22 17 -26 28 -26 69 0 41 4 52 26 69 30
23 42 25 77 12z"/>
<path d="M6480 2503 c0 -87 2 -103 16 -103 12 0 15 9 12 38 -3 36 -2 37 32 40
63 5 78 11 88 39 10 31 0 71 -21 78 -7 3 -38 7 -70 8 l-57 3 0 -103z m118 60
c6 -10 6 -28 1 -40 -7 -19 -16 -23 -49 -23 l-40 0 0 40 c0 40 0 40 40 40 27 0
42 -5 48 -17z"/>
<path d="M6740 2501 c0 -138 18 -149 22 -13 l3 97 28 -80 c15 -44 31 -86 36
-94 17 -27 36 -2 66 85 l30 89 3 -98 c4 -132 22 -117 22 19 0 103 0 104 -24
104 -21 0 -26 -9 -46 -80 -13 -45 -26 -83 -31 -85 -7 -5 -22 30 -52 120 -10
28 -20 41 -35 43 -21 3 -22 0 -22 -107z"/>
<path d="M7072 2504 l3 -106 68 -2 c79 -1 91 12 15 16 l-53 3 -3 38 -3 37 50
0 c28 0 51 5 51 10 0 6 -22 10 -50 10 l-50 0 0 40 0 40 55 0 c30 0 55 5 55 10
0 6 -30 10 -70 10 l-71 0 3 -106z"/>
<path d="M7322 2503 c2 -68 7 -106 13 -103 6 3 10 41 9 87 0 45 3 80 7 78 4
-3 24 -36 45 -73 77 -141 94 -139 94 8 0 67 -4 110 -10 110 -6 0 -10 -35 -10
-85 0 -47 -3 -85 -7 -85 -5 0 -30 39 -56 85 -35 62 -54 85 -68 85 -19 0 -20
-6 -17 -107z"/>
<path d="M7600 2601 c0 -6 15 -11 33 -13 l32 -3 3 -92 c1 -51 7 -93 12 -93 5
0 11 42 12 93 l3 92 38 3 c71 6 37 22 -48 22 -47 0 -85 -4 -85 -9z"/>
<path d="M5950 2495 l0 -105 49 0 c75 0 97 14 31 20 l-55 5 -3 93 c-4 128 -22
117 -22 -13z"/>
</g>
</svg>
